<?xml version="1.0" standalone="no"?>
<!DOCTYPE svg PUBLIC "-//W3C//DTD SVG 20010904//EN"
 "http://www.w3.org/TR/2001/REC-SVG-20010904/DTD/svg10.dtd">
<svg version="1.0" xmlns="http://www.w3.org/2000/svg"
 width="512.000000pt" height="512.000000pt" viewBox="0 0 512.000000 512.000000"
 preserveAspectRatio="xMidYMid meet">
<metadata>
Created by potrace 1.14, written by Peter Selinger 2001-2017
</metadata>
<g transform="translate(0.000000,512.000000) scale(0.100000,-0.100000)"
fill="#000000" stroke="none">
<path d="M2150 5105 c-189 -50 -329 -220 -339 -412 -8 -160 81 -327 217 -406
53 -31 135 -60 168 -60 12 0 21 -21 39 -97 2 -8 7 -26 10 -39 9 -29 6 -28
-165 19 -184 50 -854 229 -982 262 -108 28 -122 30 -164 18 -55 -16 -85 -52
-107 -130 -22 -75 -48 -172 -52 -190 -2 -8 -11 -42 -20 -75 -9 -33 -21 -78
-26 -100 -6 -22 -19 -71 -30 -109 -12 -38 -22 -76 -24 -85 -2 -9 -35 -135 -75
-281 -39 -146 -73 -272 -75 -280 -4 -22 -63 -241 -86 -320 -16 -60 -36 -135
-109 -410 -15 -58 -40 -150 -55 -205 -15 -55 -28 -107 -30 -115 -2 -8 -24 -91
-50 -185 -26 -93 -61 -226 -80 -295 -18 -69 -51 -195 -74 -280 -41 -152 -44
-187 -23 -241 21 -52 53 -66 300 -130 64 -17 140 -37 167 -44 28 -8 167 -45
310 -84 396 -106 379 -101 381 -119 2 -32 17 -124 24 -152 5 -19 11 -53 14
-75 3 -22 8 -51 10 -65 4 -20 30 -165 51 -285 7 -42 24 -73 55 -98 17 -15 37
-27 43 -28 7 0 24 -3 40 -5 15 -3 114 11 220 30 105 19 206 37 222 39 17 3 82
14 145 26 63 11 131 23 150 26 19 3 58 10 85 15 28 5 66 12 85 15 19 3 71 12
115 20 44 8 96 17 115 20 19 3 111 19 203 36 l169 30 106 -30 c607 -165 613
-166 669 -137 49 25 68 62 103 194 21 77 39 126 49 131 9 5 36 12 61 16 25 3
92 15 150 25 119 22 487 86 540 95 224 37 429 79 452 93 32 19 68 85 68 126 0
23 -32 215 -94 561 -16 88 -26 144 -30 170 -5 26 -135 762 -151 855 -17 92
-48 271 -75 420 -15 91 -52 296 -80 455 -28 160 -55 315 -60 345 -6 30 -12 64
-14 75 -2 11 -7 40 -11 65 -4 25 -9 54 -11 65 -2 11 -11 58 -19 104 -17 100
-38 139 -90 168 -38 21 -81 24 -155 9 -46 -9 -264 -48 -295 -52 -16 -3 -52 -9
-80 -14 -27 -5 -63 -12 -80 -15 -16 -3 -41 -7 -55 -9 -14 -3 -117 -21 -230
-41 -113 -20 -254 -45 -315 -56 -199 -36 -186 -37 -445 31 -129 35 -238 65
-242 69 -7 6 -66 229 -74 282 -4 22 7 38 59 90 35 36 74 83 86 106 50 99 63
221 36 328 -61 233 -313 381 -545 320z"/>
</g>
</svg>
